PathFileType	4	(X/Y/Z)	/Users/itak/Documents/Research/Walk-IL/dataset/trc/00386_00012.trc
DataRate	CameraRate	NumFrames	NumMarkers	Units	OrigDataRate	OrigDataStartFrame	OrigNumFrames
100.000000	100.000000	4	54	mm	100.000000	505	578
Frame#	Time	RPSI			LPSI			L3			STRN			T10			C7			CLAV			RBAK			LBAK			LSHO			LUPA			LAEL			LAOL			LWTS			LWPS			LFRA			LIFD			LHPS			LHTS			RSHO			RUPA			RAEL			RAOL			RWTS			RWPS			RFRA			RIFD			RHTS			RHPS			RBHD			LFHD			RFHD			LBHD			RHIP			RASI			LASI			LKNE			LTHI			LANK			LTIP			LTOE			LMT1			LMT5			LHEE			RKNE			RTHI			RANK			RTIP			RTOE			RMT1			RMT5			RHEE			LHIP			*53			
		X1	Y1	Z1	X2	Y2	Z2	X3	Y3	Z3	X4	Y4	Z4	X5	Y5	Z5	X6	Y6	Z6	X7	Y7	Z7	X8	Y8	Z8	X9	Y9	Z9	X10	Y10	Z10	X11	Y11	Z11	X12	Y12	Z12	X13	Y13	Z13	X14	Y14	Z14	X15	Y15	Z15	X16	Y16	Z16	X17	Y17	Z17	X18	Y18	Z18	X19	Y19	Z19	X20	Y20	Z20	X21	Y21	Z21	X22	Y22	Z22	X23	Y23	Z23	X24	Y24	Z24	X25	Y25	Z25	X26	Y26	Z26	X27	Y27	Z27	X28	Y28	Z28	X29	Y29	Z29	X30	Y30	Z30	X31	Y31	Z31	X32	Y32	Z32	X33	Y33	Z33	X34	Y34	Z34	X35	Y35	Z35	X36	Y36	Z36	X37	Y37	Z37	X38	Y38	Z38	X39	Y39	Z39	X40	Y40	Z40	X41	Y41	Z41	X42	Y42	Z42	X43	Y43	Z43	X44	Y44	Z44	X45	Y45	Z45	X46	Y46	Z46	X47	Y47	Z47	X48	Y48	Z48	X49	Y49	Z49	X50	Y50	Z50	X51	Y51	Z51	X52	Y52	Z52	X53	Y53	Z53	X54	Y54	Z54	

506	5.05	-1344.152221679688	989.18310546875	-14.37651538848877	-1351.381591796875	981.3314208984375	-145.4114837646484	-1343.161010742188	1056.906494140625	-81.16766357421875	-1110.198486328125	1215.058715820312	-75.65716552734375	-1362.920043945312	1161.753173828125	-81.57914733886719	-1321.380493164062	1410.268920898438	-86.82736968994141	-1165.365966796875	1333.381103515625	-76.22034454345703	-1364.842163085938	1261.898559570312	-25.86721038818359	-1333.202026367188	1376.418334960938	-191.4893646240234	-1244.263916015625	1392.545043945312	-239.2450561523438	-1267.8466796875	1275.487426757812	-309.3741455078125	-1244.020141601562	1081.378540039062	-337.3272399902344	-1296.087036132812	1056.003051757812	-275.2773132324219	-1142.903930664062	869.9991455078125	-302.0263061523438	-1195.441284179688	855.85791015625	-361.9349975585938	-1223.689453125	976.798583984375	-348.3665466308594	-1137.809936523438	691.6885986328125	-307.4878234863281	-1176.80810546875	771.1945190429688	-355.8135681152344	-1121.283203125	775.1325073242188	-324.7803039550781	-1273.7666015625	1386.033569335938	71.88459777832031	-1294.439575195312	1322.59423828125	126.7179412841797	-1325.808959960938	1065.43994140625	165.5092163085938	-1329.220581054688	1054.219482421875	69.12277221679688	-1192.296508789062	854.16162109375	163.66650390625	-1244.843627929688	842.080810546875	216.6522827148438	-1305.352416992188	999.5891723632812	186.6707916259766	-1191.157470703125	679.6860961914062	175.3676910400391	-1175.458984375	749.9641723632812	191.3589019775391	-1238.363159179688	752.9080200195312	220.2007904052734	-1263.215942382812	1576.141845703125	32.89188385009766	-1203.684936523438	1628.0322265625	-150.7889404296875	-1158.963012695312	1624.9677734375	-36.28633117675781	-1336.812133789062	1573.716064453125	-112.1101226806641	-1258.364990234375	962.9653930664062	98.39874267578125	-1127.562744140625	969.6465454101562	39.6403694152832	-1154.87744140625	963.458740234375	-221.498046875	-1254.729248046875	476.9083251953125	-249.3289489746094	-1249.456665039062	620.0327758789062	-258.3381958007812	-1381.0283203125	45.22856140136719	-215.1678466796875	-1322.905639648438	249.6500244140625	-245.2119140625	-1168.98291015625	45.96450424194336	-148.1085357666016	-1250.175170898438	43.97270202636719	-119.5666275024414	-1251.982421875	44.03797912597656	-225.1174926757812	-1420.179809570312	42.69187927246094	-157.9056701660156	-1255.101440429688	474.5579833984375	70.81884002685547	-1195.101684570312	733.3472900390625	94.72478485107422	-1332.888671875	57.97480773925781	30.74263954162598	-1254.708618164062	347.71337890625	52.26761627197266	-1154.803466796875	42.24442672729492	-34.46730422973633	-1229.117797851562	44.023193359375	-63.84603118896484	-1245.904174804688	53.09154510498047	33.88644790649414	-1407.126220703125	44.08181762695312	-21.62573432922363	-1269.342895507812	969.5371704101562	-261.9434204101562	nan	nan	nan	
507	5.06	-1344.748046875	989.2474975585938	-15.4189977645874	-1351.96435546875	981.2989501953125	-146.4569549560547	-1344.003173828125	1056.797607421875	-82.04449462890625	-1110.768798828125	1214.986206054688	-76.38214111328125	-1362.99951171875	1161.71923828125	-82.72383880615234	-1321.791748046875	1410.298706054688	-87.19622802734375	-1165.814208984375	1333.266967773438	-76.81305694580078	-1365.195190429688	1261.90185546875	-26.18869400024414	-1333.700073242188	1376.466064453125	-191.8508605957031	-1244.885375976562	1392.590087890625	-239.7382507324219	-1268.74267578125	1275.594360351562	-309.9397888183594	-1245.522338867188	1081.5283203125	-338.1527404785156	-1297.439697265625	1056.164428710938	-275.919921875	-1146.048095703125	869.14501953125	-303.5177001953125	-1198.842895507812	855.6995849609375	-363.257568359375	-1225.970581054688	976.8275756835938	-349.4282836914062	-1143.735473632812	690.6635131835938	-310.4322814941406	-1181.017456054688	770.88037109375	-357.5668640136719	-1125.480224609375	774.1949462890625	-326.7135314941406	-1273.968627929688	1385.981811523438	71.44603729248047	-1294.438842773438	1322.4541015625	126.38818359375	-1324.765625	1065.127319335938	165.6652374267578	-1328.954956054688	1053.889770507812	69.34980773925781	-1188.799926757812	855.7246704101562	162.2396697998047	-1240.990600585938	842.5982666015625	216.0181579589844	-1303.472900390625	999.4536743164062	186.6544342041016	-1185.501342773438	681.04541015625	174.2022399902344	-1170.52099609375	751.4948120117188	190.0357971191406	-1233.431884765625	753.6395874023438	219.6519470214844	-1263.6259765625	1576.207885742188	32.41197967529297	-1204.345092773438	1628.026611328125	-151.3650360107422	-1159.52001953125	1625.180297851562	-36.88257217407227	-1337.254272460938	1573.489013671875	-112.4782333374023	-1259.017700195312	963.067626953125	97.46744537353516	-1128.157958984375	969.7044067382812	38.85308074951172	-1155.355712890625	963.3695678710938	-222.3996429443359	-1256.5205078125	477.0238952636719	-250.127685546875	-1250.74560546875	620.025634765625	-259.0794677734375	-1381.084594726562	45.13053512573242	-215.1509704589844	-1324.001953125	249.6215667724609	-245.6316986083984	-1169.04345703125	45.98550796508789	-148.100341796875	-1250.270385742188	43.99028778076172	-119.6164169311523	-1252.005737304688	44.03266143798828	-225.11865234375	-1420.262084960938	42.6064453125	-157.8831176757812	-1256.2802734375	474.8363342285156	70.53123474121094	-1195.814086914062	733.5984497070312	94.1458740234375	-1332.880981445312	58.01261520385742	30.68897819519043	-1255.638305664062	348.0286560058594	52.13665008544922	-1154.723388671875	42.19899749755859	-34.45306777954102	-1229.10400390625	44.02722549438477	-63.83022308349609	-1245.891723632812	53.08683395385742	33.88662719726562	-1407.060180664062	44.0598030090332	-21.76436424255371	-1269.956787109375	969.4478149414062	-262.8783569335938	nan	nan	nan	
508	5.07	-1345.281982421875	989.4000244140625	-16.39372634887695	-1352.51416015625	981.3789672851562	-147.4449768066406	-1344.78125	1056.730712890625	-82.87625122070312	-1111.376220703125	1214.938842773438	-77.12623596191406	-1363.02734375	1161.677856445312	-83.79742431640625	-1322.18017578125	1410.336669921875	-87.55665588378906	-1166.240112304688	1333.191040039062	-77.40749359130859	-1365.540893554688	1261.895874023438	-26.52617073059082	-1334.193359375	1376.533325195312	-192.2073364257812	-1245.492797851562	1392.669067382812	-240.2212371826172	-1269.634399414062	1275.74462890625	-310.5044555664062	-1247.009765625	1081.731079101562	-338.9708251953125	-1298.763671875	1056.364868164062	-276.5482482910156	-1149.106079101562	868.3829956054688	-305.0610961914062	-1202.266357421875	855.6428833007812	-364.6429748535156	-1228.210083007812	976.9266357421875	-350.4965515136719	-1149.032836914062	689.76171875	-313.2500915527344	-1185.108642578125	770.6685180664062	-359.3706665039062	-1129.529663085938	773.3726806640625	-328.70703125	-1274.168701171875	1385.932861328125	71.00978851318359	-1294.456665039062	1322.325073242188	126.0469055175781	-1323.720581054688	1064.82958984375	165.8083038330078	-1328.657836914062	1053.559448242188	69.55373382568359	-1185.40087890625	857.2222290039062	160.8933868408203	-1237.278686523438	843.1520385742188	215.4200134277344	-1301.626708984375	999.3455810546875	186.6339721679688	-1179.917724609375	682.4480590820312	173.0631103515625	-1165.691040039062	753.0487670898438	188.7825775146484	-1228.638061523438	754.4170532226562	219.1309967041016	-1263.984985351562	1576.282958984375	31.92984962463379	-1204.962768554688	1628.025634765625	-151.9285278320312	-1160.025512695312	1625.357543945312	-37.48781204223633	-1337.67138671875	1573.324951171875	-112.8325271606445	-1259.619018554688	963.2014770507812	96.58118438720703	-1128.721923828125	969.7800903320312	38.09258651733398	-1155.802856445312	963.32373046875	-223.2545623779297	-1258.204711914062	477.1282958984375	-250.9293212890625	-1252.015502929688	620.0337524414062	-259.8211059570312	-1381.137573242188	45.03376770019531	-215.1588287353516	-1325.047485351562	249.6114959716797	-246.0682983398438	-1169.109130859375	46.01091003417969	-148.1045074462891	-1250.313232421875	44.04601669311523	-119.6684188842773	-1252.027465820312	44.01992797851562	-225.1334686279297	-1420.336669921875	42.52922439575195	-157.8818817138672	-1257.347045898438	475.1051635742188	70.21082305908203	-1196.506591796875	733.829833984375	93.553955078125	-1332.863037109375	58.05575561523438	30.6319465637207	-1256.4990234375	348.3245849609375	51.97212219238281	-1154.63818359375	42.15303802490234	-34.4471435546875	-1229.09814453125	44.02324676513672	-63.80141448974609	-1245.868774414062	53.08956527709961	33.87735366821289	-1406.994750976562	44.04811096191406	-21.90760231018066	-1270.547729492188	969.411376953125	-263.7651977539062	nan	nan	nan	
509	5.08	-1345.759643554688	989.6516723632812	-17.29690361022949	-1353.035278320312	981.5908813476562	-148.3688659667969	-1345.465942382812	1056.718872070312	-83.66577911376953	-1112.016235351562	1214.91845703125	-77.89250183105469	-1363.006103515625	1161.628784179688	-84.7623291015625	-1322.547485351562	1410.38818359375	-87.91095733642578	-1166.636352539062	1333.166015625	-78.00629425048828	-1365.869506835938	1261.886474609375	-26.87861442565918	-1334.686279296875	1376.6279296875	-192.5588836669922	-1246.083740234375	1392.787719726562	-240.6920013427734	-1270.523071289062	1275.944458007812	-311.0721130371094	-1248.493774414062	1081.998046875	-339.7828674316406	-1300.045654296875	1056.610229492188	-277.1650085449219	-1152.064331054688	867.7258911132812	-306.655517578125	-1205.671630859375	855.689208984375	-366.0861511230469	-1230.401245117188	977.0997314453125	-351.5751037597656	-1153.513671875	688.9989624023438	-315.8009643554688	-1189.075561523438	770.5610961914062	-361.2037658691406	-1133.379272460938	772.6709594726562	-330.7349243164062	-1274.36083984375	1385.895141601562	70.57601928710938	-1294.490356445312	1322.214477539062	125.6884078979492	-1322.678588867188	1064.565551757812	165.9304504394531	-1328.32470703125	1053.240966796875	69.72004699707031	-1182.126342773438	858.6165161132812	159.6666107177734	-1233.7158203125	843.743408203125	214.8535766601562	-1299.826904296875	999.2731323242188	186.5918884277344	-1174.413452148438	683.884521484375	171.9513549804688	-1160.995971679688	754.6121215820312	187.6121520996094	-1223.974243164062	755.2259521484375	218.6197814941406	-1264.2900390625	1576.358642578125	31.44648742675781	-1205.534790039062	1628.045654296875	-152.4756469726562	-1160.476684570312	1625.50537109375	-38.09519958496094	-1338.087158203125	1573.24169921875	-113.1831893920898	-1260.17138671875	963.37353515625	95.74192810058594	-1129.256591796875	969.8709716796875	37.35636901855469	-1156.225341796875	963.3299560546875	-224.0598754882812	-1259.77880859375	477.2214965820312	-251.73388671875	-1253.310913085938	620.0745239257812	-260.5902709960938	-1381.1865234375	44.93879699707031	-215.1927642822266	-1326.033203125	249.6184692382812	-246.5230407714844	-1169.179931640625	46.04125595092773	-148.1239013671875	-1250.295166015625	44.14645004272461	-119.7216415405273	-1252.046508789062	43.99806213378906	-225.1643676757812	-1420.396362304688	42.46200942993164	-157.9039611816406	-1258.307373046875	475.3634948730469	69.87494659423828	-1197.196899414062	734.053955078125	92.96440124511719	-1332.835083007812	58.10110855102539	30.5775203704834	-1257.288208007812	348.593505859375	51.78450775146484	-1154.546752929688	42.10601425170898	-34.44896697998047	-1229.107421875	44.0191764831543	-63.74667358398438	-1245.838012695312	53.09671783447266	33.86531066894531	-1406.93310546875	44.05172729492188	-22.0478515625	-1271.106201171875	969.4381103515625	-264.5962829589844	nan	nan	nan	
